# Blender 4.0.2
# www.blender.org
mtllib IntSubCrates.mtl
o Crate1
v -0.837466 0.000000 0.666000
v -0.837466 -0.000000 -1.112000
v 0.940534 -0.000000 -1.112000
v 0.940534 0.000000 0.666000
v -0.837466 2.540000 0.666000
v 0.940534 2.540000 0.666000
v 0.940534 2.540000 -1.112000
v -0.837466 2.540000 -1.112000
v -0.837466 0.381000 1.047000
v 0.940534 0.381000 1.047000
v 0.940534 2.159000 1.047000
v -0.837466 2.159000 1.047000
v 1.321534 0.381000 0.666000
v 1.321534 0.381000 -1.112000
v 1.321534 2.159000 -1.112000
v 1.321534 2.159000 0.666000
v 0.940534 0.381000 -1.493000
v -0.837466 0.381000 -1.493000
v -0.837466 2.159000 -1.493000
v 0.940534 2.159000 -1.493000
v -1.218466 0.381000 -1.112000
v -1.218466 0.381000 0.666000
v -1.218466 2.159000 0.666000
v -1.218466 2.159000 -1.112000
v -0.837466 0.254000 0.666000
v -0.837466 0.254000 -1.112000
v 0.940534 0.254000 -1.112000
v 0.940534 0.254000 0.666000
v -0.837466 2.286000 0.666000
v 0.940534 2.286000 0.666000
v 0.940534 2.286000 -1.112000
v -0.837466 2.286000 -1.112000
v -0.837466 0.381000 0.793000
v 0.940534 0.381000 0.793000
v 0.940534 2.159000 0.793000
v -0.837466 2.159000 0.793000
v 1.067534 0.381000 0.666000
v 1.067534 0.381000 -1.112000
v 1.067534 2.159000 -1.112000
v 1.067534 2.159000 0.666000
v 0.940534 0.381000 -1.239000
v -0.837466 0.381000 -1.239000
v -0.837466 2.159000 -1.239000
v 0.940534 2.159000 -1.239000
v -0.964466 0.381000 -1.112000
v -0.964466 0.381000 0.666000
v -0.964466 2.159000 0.666000
v -0.964466 2.159000 -1.112000
v -0.935036 2.078223 0.783709
v -0.935036 2.257828 0.604104
v -0.935035 0.282171 -1.012341
v -0.935035 0.461776 -1.191946
v -1.189035 2.078223 0.783709
v -1.189036 2.257828 0.604104
v -1.189035 0.282171 -1.012341
v -1.189035 0.461776 -1.191946
v 0.987828 2.078223 0.730916
v 0.808223 2.257828 0.730916
v -0.808222 0.282171 0.730916
v -0.987827 0.461776 0.730916
v 0.987828 2.078223 0.984916
v 0.808223 2.257828 0.984916
v -0.808222 0.282171 0.984916
v -0.987827 0.461776 0.984916
v 0.935035 2.078223 -1.191948
v 0.935035 2.257828 -1.012342
v 0.935035 0.282171 0.604103
v 0.935035 0.461776 0.783708
v 1.189035 2.078223 -1.191948
v 1.189035 2.257828 -1.012342
v 1.189035 0.282171 0.604103
v 1.189035 0.461776 0.783708
v -0.987828 2.078223 -1.139154
v -0.808223 2.257828 -1.139154
v 0.808222 0.282172 -1.139154
v 0.987827 0.461776 -1.139154
v -0.987828 2.078223 -1.393154
v -0.808223 2.257828 -1.393154
v 0.808222 0.282171 -1.393154
v 0.987827 0.461776 -1.393154
v -0.987828 2.205035 0.604105
v -0.808222 2.205035 0.783709
v 0.808222 2.205035 -1.191948
v 0.987827 2.205035 -1.012343
v -0.987828 2.459035 0.604104
v -0.808222 2.459035 0.783709
v 0.808222 2.459035 -1.191948
v 0.987827 2.459035 -1.012344
v -0.987828 0.334965 -1.012341
v -0.808222 0.334965 -1.191947
v 0.808222 0.334965 0.783710
v 0.987827 0.334965 0.604104
v -0.987828 0.080965 -1.012341
v -0.808222 0.080965 -1.191947
v 0.808222 0.080965 0.783710
v 0.987827 0.080965 0.604105
v -1.185422 0.033044 1.013956
v -1.196437 0.022029 0.944538
v -1.218466 0.102462 0.944538
v -1.196437 0.102462 1.024971
v -1.116004 0.102462 1.047000
v -1.116004 0.022029 1.024971
v -1.116004 0.000000 0.944538
v -1.185422 0.033044 -1.459956
v -1.196437 0.022029 -1.390538
v -1.116004 -0.000000 -1.390538
v -1.116004 0.022029 -1.470970
v -1.116004 0.102462 -1.493000
v -1.196437 0.102462 -1.470970
v -1.218466 0.102462 -1.390538
v 1.288490 0.033044 -1.459956
v 1.219072 0.022029 -1.470970
v 1.219072 -0.000000 -1.390538
v 1.299504 0.022029 -1.390538
v 1.321534 0.102462 -1.390538
v 1.299504 0.102462 -1.470970
v 1.219072 0.102462 -1.493000
v 1.288490 0.033044 1.013956
v 1.299504 0.022029 0.944538
v 1.219072 0.000000 0.944538
v 1.219072 0.022029 1.024971
v 1.219072 0.102462 1.047000
v 1.299504 0.102462 1.024971
v 1.321534 0.102462 0.944538
v -1.185422 2.506956 1.013956
v -1.116004 2.517971 1.024971
v -1.116004 2.437538 1.047000
v -1.196437 2.437538 1.024971
v -1.218466 2.437538 0.944538
v -1.196437 2.517971 0.944538
v -1.116004 2.540000 0.944538
v 1.288490 2.506956 1.013956
v 1.219072 2.517971 1.024971
v 1.219072 2.540000 0.944538
v 1.299504 2.517971 0.944538
v 1.321534 2.437538 0.944538
v 1.299504 2.437538 1.024971
v 1.219072 2.437538 1.047000
v 1.288490 2.506956 -1.459956
v 1.299504 2.517971 -1.390538
v 1.219072 2.540000 -1.390538
v 1.219072 2.517971 -1.470971
v 1.219072 2.437538 -1.493000
v 1.299504 2.437538 -1.470971
v 1.321534 2.437538 -1.390538
v -1.185422 2.506956 -1.459956
v -1.116004 2.517971 -1.470971
v -1.116004 2.540000 -1.390538
v -1.196437 2.517971 -1.390538
v -1.218466 2.437538 -1.390538
v -1.196437 2.437538 -1.470971
v -1.116004 2.437538 -1.493000
v -0.935355 0.282172 0.604104
v -0.935355 0.461777 0.783709
v -0.935355 2.078223 -1.191947
v -0.935355 2.257828 -1.012342
v -1.189355 0.282172 0.604104
v -1.189355 0.461777 0.783709
v -1.189355 2.078223 -1.191947
v -1.189355 2.257828 -1.012342
v 0.808223 0.282172 0.731236
v 0.987828 0.461777 0.731236
v -0.987828 2.078223 0.731236
v -0.808223 2.257828 0.731236
v 0.808223 0.282172 0.985236
v 0.987828 0.461777 0.985236
v -0.987828 2.078223 0.985236
v -0.808223 2.257828 0.985236
v 0.935355 0.282172 -1.012342
v 0.935355 0.461777 -1.191947
v 0.935355 2.078223 0.783709
v 0.935355 2.257828 0.604103
v 1.189355 0.282172 -1.012342
v 1.189355 0.461777 -1.191947
v 1.189355 2.078223 0.783709
v 1.189355 2.257828 0.604103
v -0.808223 0.282172 -1.139474
v -0.987828 0.461777 -1.139474
v 0.987828 2.078223 -1.139474
v 0.808223 2.257828 -1.139474
v -0.808223 0.282172 -1.393474
v -0.987828 0.461777 -1.393474
v 0.987828 2.078223 -1.393474
v 0.808223 2.257828 -1.393474
v -0.808223 2.205355 -1.191947
v -0.987828 2.205355 -1.012342
v 0.987828 2.205355 0.604104
v 0.808223 2.205355 0.783709
v -0.808223 2.459355 -1.191947
v -0.987828 2.459355 -1.012342
v 0.987828 2.459355 0.604104
v 0.808223 2.459355 0.783709
v -0.808223 0.334645 0.783709
v -0.987828 0.334645 0.604104
v 0.987828 0.334645 -1.012342
v 0.808223 0.334645 -1.191947
v -0.808223 0.080645 0.783709
v -0.987828 0.080645 0.604104
v 0.987828 0.080645 -1.012342
v 0.808223 0.080645 -1.191947
vn -0.0000 -1.0000 -0.0000
vn -0.0000 1.0000 -0.0000
vn -0.0000 -0.0000 1.0000
vn 1.0000 -0.0000 -0.0000
vn -0.0000 -0.0000 -1.0000
vn -1.0000 -0.0000 -0.0000
vn -0.0000 0.7071 -0.7071
vn -0.0000 -0.7071 0.7071
vn -0.7071 0.7071 -0.0000
vn 0.7071 -0.7071 -0.0000
vn -0.0000 0.7071 0.7071
vn -0.0000 -0.7071 -0.7071
vn 0.7071 0.7071 -0.0000
vn -0.7071 -0.7071 -0.0000
vn 0.7071 -0.0000 0.7071
vn -0.7071 -0.0000 -0.7071
vn 0.7071 -0.0000 -0.7071
vn -0.7071 -0.0000 0.7071
vn -0.2642 -0.9645 -0.0000
vn -0.0000 -0.9645 -0.2642
vn 0.2642 -0.9645 -0.0000
vn -0.0000 -0.9645 0.2642
vn -0.0000 0.9645 0.2642
vn 0.2642 0.9645 -0.0000
vn -0.0000 0.9645 -0.2642
vn -0.2642 0.9645 -0.0000
vn -0.0000 -0.2642 0.9645
vn 0.2642 -0.0000 0.9645
vn -0.0000 0.2642 0.9645
vn -0.2642 -0.0000 0.9645
vn 0.9645 -0.2642 -0.0000
vn 0.9645 -0.0000 -0.2642
vn 0.9645 0.2642 -0.0000
vn 0.9645 -0.0000 0.2642
vn -0.0000 -0.2642 -0.9645
vn -0.2642 -0.0000 -0.9645
vn -0.0000 0.2642 -0.9645
vn 0.2642 -0.0000 -0.9645
vn -0.9645 -0.2642 -0.0000
vn -0.9645 -0.0000 0.2642
vn -0.9645 0.2642 -0.0000
vn -0.9645 -0.0000 -0.2642
vn -0.2256 -0.9478 -0.2256
vn -0.2593 -0.9467 -0.1913
vn -0.1913 -0.9467 -0.2593
vn 0.2256 -0.9478 -0.2256
vn 0.1913 -0.9467 -0.2593
vn 0.2593 -0.9467 -0.1913
vn 0.2256 -0.9478 0.2256
vn 0.2593 -0.9467 0.1913
vn 0.1913 -0.9467 0.2593
vn -0.2256 -0.9478 0.2256
vn -0.1913 -0.9467 0.2593
vn -0.2593 -0.9467 0.1913
vn 0.2256 0.9478 0.2256
vn 0.1913 0.9467 0.2593
vn 0.2593 0.9467 0.1913
vn 0.2256 0.9478 -0.2256
vn 0.2593 0.9467 -0.1913
vn 0.1913 0.9467 -0.2593
vn -0.2256 0.9478 -0.2256
vn -0.1913 0.9467 -0.2593
vn -0.2593 0.9467 -0.1913
vn -0.2256 0.9478 0.2256
vn -0.2593 0.9467 0.1913
vn -0.1913 0.9467 0.2593
vn 0.2256 -0.2256 0.9478
vn 0.1913 -0.2593 0.9467
vn 0.2593 -0.1913 0.9467
vn 0.2256 0.2256 0.9478
vn 0.2593 0.1913 0.9467
vn 0.1913 0.2593 0.9467
vn -0.2256 0.2256 0.9478
vn -0.1913 0.2593 0.9467
vn -0.2593 0.1913 0.9467
vn -0.2256 -0.2256 0.9478
vn -0.2593 -0.1913 0.9467
vn -0.1913 -0.2593 0.9467
vn 0.9478 -0.2256 -0.2256
vn 0.9467 -0.2593 -0.1914
vn 0.9467 -0.1913 -0.2593
vn 0.9478 0.2256 -0.2256
vn 0.9467 0.1913 -0.2593
vn 0.9467 0.2593 -0.1914
vn 0.9478 0.2256 0.2256
vn 0.9467 0.2593 0.1914
vn 0.9467 0.1913 0.2593
vn 0.9478 -0.2256 0.2256
vn 0.9467 -0.1913 0.2593
vn 0.9467 -0.2593 0.1913
vn -0.2256 -0.2256 -0.9478
vn -0.1913 -0.2593 -0.9467
vn -0.2593 -0.1913 -0.9467
vn -0.2256 0.2256 -0.9478
vn -0.2593 0.1913 -0.9467
vn -0.1913 0.2593 -0.9467
vn 0.2256 0.2256 -0.9478
vn 0.1913 0.2593 -0.9467
vn 0.2593 0.1913 -0.9467
vn 0.2256 -0.2256 -0.9478
vn 0.2593 -0.1913 -0.9467
vn 0.1913 -0.2593 -0.9467
vn -0.9478 -0.2256 0.2256
vn -0.9467 -0.2593 0.1914
vn -0.9467 -0.1913 0.2593
vn -0.9478 0.2256 0.2256
vn -0.9467 0.1913 0.2593
vn -0.9467 0.2593 0.1913
vn -0.9478 0.2256 -0.2256
vn -0.9467 0.2593 -0.1914
vn -0.9467 0.1913 -0.2593
vn -0.9478 -0.2256 -0.2256
vn -0.9467 -0.1913 -0.2593
vn -0.9467 -0.2593 -0.1913
vt 0.419980 0.056974
vt 0.436431 0.190416
vt 0.304998 0.201390
vt 0.285069 0.068247
vt 0.439723 0.680372
vt 0.308238 0.693474
vt 0.302711 0.559112
vt 0.433089 0.546001
vt 0.438819 0.433182
vt 0.309019 0.446321
vt 0.302583 0.315424
vt 0.432461 0.302296
vt 0.686399 0.426286
vt 0.551967 0.438204
vt 0.545643 0.306029
vt 0.679828 0.290563
vt 0.301390 0.808052
vt 0.433877 0.794889
vt 0.441176 0.930413
vt 0.306276 0.943812
vt 0.195922 0.442579
vt 0.061954 0.458071
vt 0.055304 0.322522
vt 0.189500 0.310471
vt 0.235130 0.016826
vt 0.262331 0.042409
vt 0.280494 0.223081
vt 0.256147 0.248727
vt 0.471011 0.008660
vt 0.445412 0.034888
vt 0.483843 0.240421
vt 0.458156 0.215506
vt 0.484932 0.499773
vt 0.459153 0.525009
vt 0.282032 0.533848
vt 0.257502 0.508229
vt 0.485654 0.731720
vt 0.460681 0.705879
vt 0.255646 0.740003
vt 0.281855 0.714588
vt 0.483557 0.256629
vt 0.458075 0.281531
vt 0.282043 0.290381
vt 0.257574 0.265119
vt 0.483772 0.483448
vt 0.459335 0.458205
vt 0.257969 0.491973
vt 0.283424 0.467080
vt 0.733183 0.242200
vt 0.706554 0.268633
vt 0.524768 0.280735
vt 0.499941 0.255469
vt 0.733060 0.479120
vt 0.707659 0.452551
vt 0.500099 0.484061
vt 0.526020 0.459136
vt 0.252396 0.991312
vt 0.279315 0.965369
vt 0.462575 0.956489
vt 0.488167 0.982801
vt 0.255913 0.756511
vt 0.280577 0.782437
vt 0.486010 0.748225
vt 0.460081 0.773671
vt 0.241291 0.264601
vt 0.215413 0.289535
vt 0.034056 0.296325
vt 0.008680 0.269826
vt 0.241623 0.493075
vt 0.216798 0.467837
vt 0.008715 0.506378
vt 0.035283 0.479979
vt 0.764336 0.667409
vt 0.786529 0.667409
vt 0.786529 0.889337
vt 0.764336 0.889337
vt 0.742143 0.889337
vt 0.742143 0.667409
vt 0.808721 0.667409
vt 0.808721 0.889337
vt 0.898421 0.000232
vt 0.920613 0.000232
vt 0.920613 0.222160
vt 0.898421 0.222160
vt 0.876228 0.222160
vt 0.876228 0.000232
vt 0.942806 0.000232
vt 0.942806 0.222160
vt 0.898421 0.222624
vt 0.920613 0.222624
vt 0.920613 0.444552
vt 0.898421 0.444552
vt 0.876228 0.444552
vt 0.876228 0.222624
vt 0.942806 0.222624
vt 0.942806 0.444552
vt 0.898421 0.445016
vt 0.920613 0.445016
vt 0.920613 0.666945
vt 0.898421 0.666945
vt 0.876228 0.666945
vt 0.876228 0.445016
vt 0.942806 0.445016
vt 0.942806 0.666945
vt 0.853571 0.889337
vt 0.831378 0.889337
vt 0.831378 0.667408
vt 0.853571 0.667408
vt 0.875764 0.667408
vt 0.875764 0.889337
vt 0.809185 0.889337
vt 0.809185 0.667408
vt 0.920613 0.889337
vt 0.898421 0.889337
vt 0.898421 0.667408
vt 0.920613 0.667408
vt 0.942806 0.667408
vt 0.942806 0.889337
vt 0.876228 0.889337
vt 0.876228 0.667409
vt 0.247551 0.250143
vt 0.226734 0.017223
vt 0.234495 0.008380
vt 0.470837 0.000232
vt 0.479410 0.008068
vt 0.492451 0.240942
vt 0.483458 0.248543
vt 0.257179 0.257012
vt 0.258013 0.500070
vt 0.484085 0.491537
vt 0.493577 0.498738
vt 0.494161 0.732280
vt 0.485425 0.739936
vt 0.256187 0.748274
vt 0.247119 0.740798
vt 0.248913 0.507433
vt 0.491612 0.256324
vt 0.491955 0.483475
vt 0.249935 0.492238
vt 0.249415 0.265154
vt 0.498724 0.246762
vt 0.733074 0.233764
vt 0.741679 0.241856
vt 0.741521 0.479240
vt 0.733362 0.487566
vt 0.499348 0.492642
vt 0.488571 0.991278
vt 0.252362 0.999768
vt 0.243918 0.991525
vt 0.247367 0.755856
vt 0.494576 0.747338
vt 0.496614 0.982831
vt 0.008370 0.261393
vt 0.242024 0.256051
vt 0.242834 0.501753
vt 0.008827 0.514802
vt 0.000232 0.506726
vt 0.000232 0.269713
vt 0.227263 0.009860
vt 0.478074 0.000922
vt 0.490994 0.248756
vt 0.249702 0.257697
vt 0.491629 0.490984
vt 0.492767 0.739790
vt 0.248844 0.748358
vt 0.250527 0.499762
vt 0.740444 0.234548
vt 0.740576 0.486475
vt 0.245017 0.998846
vt 0.495772 0.990083
vt 0.001468 0.514022
vt 0.001168 0.262489
vt 0.764336 0.445016
vt 0.786529 0.445016
vt 0.786529 0.666945
vt 0.764336 0.666945
vt 0.808721 0.445016
vt 0.808721 0.666945
vt 0.742143 0.666945
vt 0.742143 0.445016
vt 0.831378 0.222624
vt 0.853571 0.222624
vt 0.853571 0.444552
vt 0.831378 0.444552
vt 0.875764 0.222624
vt 0.875764 0.444552
vt 0.809185 0.444552
vt 0.809185 0.222624
vt 0.853571 0.222160
vt 0.831378 0.222160
vt 0.831378 0.000232
vt 0.853571 0.000232
vt 0.809185 0.222160
vt 0.809185 0.000232
vt 0.875764 0.000232
vt 0.875764 0.222160
vt 0.764336 0.000232
vt 0.786529 0.000232
vt 0.786529 0.222160
vt 0.764336 0.222160
vt 0.808721 0.000232
vt 0.808721 0.222160
vt 0.742143 0.222160
vt 0.742143 0.000232
vt 0.786529 0.444552
vt 0.764336 0.444552
vt 0.764336 0.222624
vt 0.786529 0.222624
vt 0.742143 0.444552
vt 0.742143 0.222624
vt 0.808721 0.222624
vt 0.808721 0.444552
vt 0.831378 0.445016
vt 0.853571 0.445016
vt 0.853571 0.666945
vt 0.831378 0.666945
vt 0.875764 0.445016
vt 0.875764 0.666945
vt 0.809185 0.666945
vt 0.809185 0.445016
s 1
usemtl Material
f 27/1/1 28/2/1 25/3/1
f 25/3/1 26/4/1 27/1/1
f 31/5/2 32/6/2 29/7/2
f 29/7/2 30/8/2 31/5/2
f 35/9/3 36/10/3 33/11/3
f 33/11/3 34/12/3 35/9/3
f 39/13/4 40/14/4 37/15/4
f 37/15/4 38/16/4 39/13/4
f 43/17/5 44/18/5 41/19/5
f 41/19/5 42/20/5 43/17/5
f 47/21/6 48/22/6 45/23/6
f 45/23/6 46/24/6 47/21/6
f 106/25/1 2/26/1 1/27/1
f 1/27/1 103/28/1 106/25/1
f 113/29/1 3/30/1 2/26/1
f 2/26/1 106/25/1 113/29/1
f 120/31/1 4/32/1 3/30/1
f 3/30/1 113/29/1 120/31/1
f 103/28/1 1/27/1 4/32/1
f 4/32/1 120/31/1 103/28/1
f 134/33/2 6/34/2 5/35/2
f 5/35/2 131/36/2 134/33/2
f 141/37/2 7/38/2 6/34/2
f 6/34/2 134/33/2 141/37/2
f 148/39/2 8/40/2 7/38/2
f 7/38/2 141/37/2 148/39/2
f 131/36/2 5/35/2 8/40/2
f 8/40/2 148/39/2 131/36/2
f 122/41/3 10/42/3 9/43/3
f 9/43/3 101/44/3 122/41/3
f 138/45/3 11/46/3 10/42/3
f 10/42/3 122/41/3 138/45/3
f 127/47/3 12/48/3 11/46/3
f 11/46/3 138/45/3 127/47/3
f 101/44/3 9/43/3 12/48/3
f 12/48/3 127/47/3 101/44/3
f 115/49/4 14/50/4 13/51/4
f 13/51/4 124/52/4 115/49/4
f 145/53/4 15/54/4 14/50/4
f 14/50/4 115/49/4 145/53/4
f 136/55/4 16/56/4 15/54/4
f 15/54/4 145/53/4 136/55/4
f 124/52/4 13/51/4 16/56/4
f 16/56/4 136/55/4 124/52/4
f 108/57/5 18/58/5 17/59/5
f 17/59/5 117/60/5 108/57/5
f 152/61/5 19/62/5 18/58/5
f 18/58/5 108/57/5 152/61/5
f 143/63/5 20/64/5 19/62/5
f 19/62/5 152/61/5 143/63/5
f 117/60/5 17/59/5 20/64/5
f 20/64/5 143/63/5 117/60/5
f 99/65/6 22/66/6 21/67/6
f 21/67/6 110/68/6 99/65/6
f 129/69/6 23/70/6 22/66/6
f 22/66/6 99/65/6 129/69/6
f 150/71/6 24/72/6 23/70/6
f 23/70/6 129/69/6 150/71/6
f 110/68/6 21/67/6 24/72/6
f 24/72/6 150/71/6 110/68/6
f 26/4/4 25/3/4 1/27/4
f 1/27/4 2/26/4 26/4/4
f 27/1/3 26/4/3 2/26/3
f 2/26/3 3/30/3 27/1/3
f 28/2/6 27/1/6 3/30/6
f 3/30/6 4/32/6 28/2/6
f 25/3/5 28/2/5 4/32/5
f 4/32/5 1/27/5 25/3/5
f 30/8/5 29/7/5 5/35/5
f 5/35/5 6/34/5 30/8/5
f 31/5/6 30/8/6 6/34/6
f 6/34/6 7/38/6 31/5/6
f 32/6/3 31/5/3 7/38/3
f 7/38/3 8/40/3 32/6/3
f 29/7/4 32/6/4 8/40/4
f 8/40/4 5/35/4 29/7/4
f 34/12/2 33/11/2 9/43/2
f 9/43/2 10/42/2 34/12/2
f 35/9/6 34/12/6 10/42/6
f 10/42/6 11/46/6 35/9/6
f 36/10/1 35/9/1 11/46/1
f 11/46/1 12/48/1 36/10/1
f 33/11/4 36/10/4 12/48/4
f 12/48/4 9/43/4 33/11/4
f 38/16/2 37/15/2 13/51/2
f 13/51/2 14/50/2 38/16/2
f 39/13/3 38/16/3 14/50/3
f 14/50/3 15/54/3 39/13/3
f 40/14/1 39/13/1 15/54/1
f 15/54/1 16/56/1 40/14/1
f 37/15/5 40/14/5 16/56/5
f 16/56/5 13/51/5 37/15/5
f 42/20/2 41/19/2 17/59/2
f 17/59/2 18/58/2 42/20/2
f 43/17/4 42/20/4 18/58/4
f 18/58/4 19/62/4 43/17/4
f 44/18/1 43/17/1 19/62/1
f 19/62/1 20/64/1 44/18/1
f 41/19/6 44/18/6 20/64/6
f 20/64/6 17/59/6 41/19/6
f 46/24/2 45/23/2 21/67/2
f 21/67/2 22/66/2 46/24/2
f 47/21/5 46/24/5 22/66/5
f 22/66/5 23/70/5 47/21/5
f 48/22/1 47/21/1 23/70/1
f 23/70/1 24/72/1 48/22/1
f 45/23/3 48/22/3 24/72/3
f 24/72/3 21/67/3 45/23/3
f 56/73/6 55/74/6 53/75/6
f 53/75/6 54/76/6 56/73/6
f 56/73/7 54/76/7 50/77/7
f 50/77/7 52/78/7 56/73/7
f 53/75/8 55/74/8 51/79/8
f 51/79/8 49/80/8 53/75/8
f 64/81/3 63/82/3 61/83/3
f 61/83/3 62/84/3 64/81/3
f 64/81/9 62/84/9 58/85/9
f 58/85/9 60/86/9 64/81/9
f 61/83/10 63/82/10 59/87/10
f 59/87/10 57/88/10 61/83/10
f 72/89/4 71/90/4 69/91/4
f 69/91/4 70/92/4 72/89/4
f 72/89/11 70/92/11 66/93/11
f 66/93/11 68/94/11 72/89/11
f 69/91/12 71/90/12 67/95/12
f 67/95/12 65/96/12 69/91/12
f 80/97/5 79/98/5 77/99/5
f 77/99/5 78/100/5 80/97/5
f 80/97/13 78/100/13 74/101/13
f 74/101/13 76/102/13 80/97/13
f 77/99/14 79/98/14 75/103/14
f 75/103/14 73/104/14 77/99/14
f 88/105/2 87/106/2 85/107/2
f 85/107/2 86/108/2 88/105/2
f 88/105/15 86/108/15 82/109/15
f 82/109/15 84/110/15 88/105/15
f 85/107/16 87/106/16 83/111/16
f 83/111/16 81/112/16 85/107/16
f 96/113/1 95/114/1 93/115/1
f 93/115/1 94/116/1 96/113/1
f 96/113/17 94/116/17 90/117/17
f 90/117/17 92/118/17 96/113/17
f 93/115/18 95/114/18 91/119/18
f 91/119/18 89/120/18 93/115/18
f 106/25/19 103/28/19 98/121/19
f 98/121/19 105/122/19 106/25/19
f 113/29/20 106/25/20 107/123/20
f 107/123/20 112/124/20 113/29/20
f 120/31/21 113/29/21 114/125/21
f 114/125/21 119/126/21 120/31/21
f 103/28/22 120/31/22 121/127/22
f 121/127/22 102/128/22 103/28/22
f 134/33/23 131/36/23 126/129/23
f 126/129/23 133/130/23 134/33/23
f 141/37/24 134/33/24 135/131/24
f 135/131/24 140/132/24 141/37/24
f 148/39/25 141/37/25 142/133/25
f 142/133/25 147/134/25 148/39/25
f 131/36/26 148/39/26 149/135/26
f 149/135/26 130/136/26 131/36/26
f 122/41/27 101/44/27 102/128/27
f 102/128/27 121/127/27 122/41/27
f 138/45/28 122/41/28 123/137/28
f 123/137/28 137/138/28 138/45/28
f 127/47/29 138/45/29 133/130/29
f 133/130/29 126/129/29 127/47/29
f 101/44/30 127/47/30 128/139/30
f 128/139/30 100/140/30 101/44/30
f 115/49/31 124/52/31 119/141/31
f 119/141/31 114/142/31 115/49/31
f 145/53/32 115/49/32 116/143/32
f 116/143/32 144/144/32 145/53/32
f 136/55/33 145/53/33 140/145/33
f 140/145/33 135/146/33 136/55/33
f 124/52/34 136/55/34 137/138/34
f 137/138/34 123/137/34 124/52/34
f 108/57/35 117/60/35 112/147/35
f 112/147/35 107/148/35 108/57/35
f 152/61/36 108/57/36 109/149/36
f 109/149/36 151/150/36 152/61/36
f 143/63/37 152/61/37 147/134/37
f 147/134/37 142/133/37 143/63/37
f 117/60/38 143/63/38 144/151/38
f 144/151/38 116/152/38 117/60/38
f 99/65/39 110/68/39 105/153/39
f 105/153/39 98/154/39 99/65/39
f 129/69/40 99/65/40 100/140/40
f 100/140/40 128/139/40 129/69/40
f 150/71/41 129/69/41 130/155/41
f 130/155/41 149/156/41 150/71/41
f 110/68/42 150/71/42 151/157/42
f 151/157/42 109/158/42 110/68/42
f 106/25/43 105/122/44 104/159/43
f 104/159/43 107/123/45 106/25/43
f 113/29/46 112/124/47 111/160/46
f 111/160/46 114/125/48 113/29/46
f 120/31/49 119/126/50 118/161/49
f 118/161/49 121/127/51 120/31/49
f 103/28/52 102/128/53 97/162/52
f 97/162/52 98/121/54 103/28/52
f 134/33/55 133/130/56 132/163/55
f 132/163/55 135/131/57 134/33/55
f 141/37/58 140/132/59 139/164/58
f 139/164/58 142/133/60 141/37/58
f 148/39/61 147/134/62 146/165/61
f 146/165/61 149/135/63 148/39/61
f 131/36/64 130/136/65 125/166/64
f 125/166/64 126/129/66 131/36/64
f 122/41/67 121/127/68 118/161/67
f 118/161/67 123/137/69 122/41/67
f 138/45/70 137/138/71 132/163/70
f 132/163/70 133/130/72 138/45/70
f 127/47/73 126/129/74 125/166/73
f 125/166/73 128/139/75 127/47/73
f 101/44/76 100/140/77 97/162/76
f 97/162/76 102/128/78 101/44/76
f 115/49/79 114/142/80 111/167/79
f 111/167/79 116/143/81 115/49/79
f 145/53/82 144/144/83 139/168/82
f 139/168/82 140/145/84 145/53/82
f 136/55/85 135/146/86 132/163/85
f 132/163/85 137/138/87 136/55/85
f 124/52/88 123/137/89 118/161/88
f 118/161/88 119/141/90 124/52/88
f 108/57/91 107/148/92 104/169/91
f 104/169/91 109/149/93 108/57/91
f 152/61/94 151/150/95 146/165/94
f 146/165/94 147/134/96 152/61/94
f 143/63/97 142/133/98 139/164/97
f 139/164/97 144/151/99 143/63/97
f 117/60/100 116/152/101 111/170/100
f 111/170/100 112/147/102 117/60/100
f 99/65/103 98/154/104 97/162/103
f 97/162/103 100/140/105 99/65/103
f 129/69/106 128/139/107 125/166/106
f 125/166/106 130/155/108 129/69/106
f 150/71/109 149/156/110 146/171/109
f 146/171/109 151/157/111 150/71/109
f 110/68/112 109/158/113 104/172/112
f 104/172/112 105/153/114 110/68/112
f 157/173/6 158/174/6 160/175/6
f 160/175/6 159/176/6 157/173/6
f 154/177/11 156/178/11 160/175/11
f 160/175/11 158/174/11 154/177/11
f 155/179/12 153/180/12 157/173/12
f 157/173/12 159/176/12 155/179/12
f 165/181/3 166/182/3 168/183/3
f 168/183/3 167/184/3 165/181/3
f 162/185/13 164/186/13 168/183/13
f 168/183/13 166/182/13 162/185/13
f 163/187/14 161/188/14 165/181/14
f 165/181/14 167/184/14 163/187/14
f 173/189/4 174/190/4 176/191/4
f 176/191/4 175/192/4 173/189/4
f 170/193/7 172/194/7 176/191/7
f 176/191/7 174/190/7 170/193/7
f 171/195/8 169/196/8 173/189/8
f 173/189/8 175/192/8 171/195/8
f 181/197/5 182/198/5 184/199/5
f 184/199/5 183/200/5 181/197/5
f 178/201/9 180/202/9 184/199/9
f 184/199/9 182/198/9 178/201/9
f 179/203/10 177/204/10 181/197/10
f 181/197/10 183/200/10 179/203/10
f 189/205/2 190/206/2 192/207/2
f 192/207/2 191/208/2 189/205/2
f 186/209/18 188/210/18 192/207/18
f 192/207/18 190/206/18 186/209/18
f 187/211/17 185/212/17 189/205/17
f 189/205/17 191/208/17 187/211/17
f 197/213/1 198/214/1 200/215/1
f 200/215/1 199/216/1 197/213/1
f 194/217/16 196/218/16 200/215/16
f 200/215/16 198/214/16 194/217/16
f 195/219/15 193/220/15 197/213/15
f 197/213/15 199/216/15 195/219/15
